# 3ds Max Wavefront OBJ Exporter v0.97b - (c)2007 guruware
# File Created: 27.02.2018 15:56:56

mtllib globy.mtl

#
# object GMT00
#

v  -0.0000 -255.9055 0.0000
v  -33.1166 -253.7162 4.3599
v  -33.4024 -253.7162 -0.0000
v  -33.1166 -253.7162 -4.3599
v  -65.6666 -247.1857 8.6451
v  -66.2332 -247.1857 -0.0001
v  -65.6666 -247.1857 -8.6452
v  -97.0930 -236.4259 12.7825
v  -97.9308 -236.4259 -0.0001
v  -97.0930 -236.4259 -12.7826
v  -126.8581 -221.6207 16.7011
v  -127.9528 -221.6207 -0.0001
v  -126.8581 -221.6207 -16.7013
v  -154.4527 -203.0235 20.3340
v  -155.7854 -203.0235 -0.0001
v  -154.4526 -203.0235 -20.3342
v  -179.4045 -180.9525 23.6189
v  -180.9525 -180.9525 -0.0002
v  -179.4044 -180.9525 -23.6192
v  -201.2866 -155.7854 26.4997
v  -203.0235 -155.7854 -0.0002
v  -201.2866 -155.7854 -26.5001
v  -219.7247 -127.9528 28.9271
v  -221.6207 -127.9528 -0.0002
v  -219.7247 -127.9528 -28.9276
v  -234.4032 -97.9308 30.8596
v  -236.4259 -97.9308 -0.0002
v  -234.4032 -97.9308 -30.8600
v  -245.0711 -66.2332 32.2640
v  -247.1857 -66.2332 -0.0002
v  -245.0710 -66.2332 -32.2645
v  -251.5457 -33.4024 33.1164
v  -253.7162 -33.4024 -0.0002
v  -251.5456 -33.4024 -33.1169
v  -253.7162 -0.0000 33.4022
v  -255.9055 -0.0000 -0.0002
v  -253.7162 -0.0000 -33.4027
v  -251.5457 33.4023 33.1164
v  -253.7162 33.4023 -0.0002
v  -251.5456 33.4023 -33.1169
v  -245.0711 66.2332 32.2640
v  -247.1858 66.2332 -0.0002
v  -245.0710 66.2332 -32.2645
v  -234.4032 97.9308 30.8596
v  -236.4259 97.9308 -0.0002
v  -234.4032 97.9308 -30.8600
v  -219.7247 127.9527 28.9272
v  -221.6207 127.9527 -0.0002
v  -219.7247 127.9527 -28.9276
v  -201.2866 155.7854 26.4997
v  -203.0235 155.7854 -0.0002
v  -201.2866 155.7854 -26.5001
v  -179.4045 180.9525 23.6189
v  -180.9526 180.9525 -0.0002
v  -179.4044 180.9525 -23.6193
v  -154.4527 203.0235 20.3340
v  -155.7854 203.0235 -0.0001
v  -154.4527 203.0235 -20.3343
v  -126.8582 221.6207 16.7011
v  -127.9528 221.6207 -0.0001
v  -126.8581 221.6207 -16.7013
v  -97.0930 236.4259 12.7825
v  -97.9309 236.4259 -0.0001
v  -97.0930 236.4259 -12.7827
v  -65.6667 247.1857 8.6451
v  -66.2333 247.1857 -0.0001
v  -65.6666 247.1857 -8.6453
v  -33.1167 253.7162 4.3599
v  -33.4024 253.7162 -0.0000
v  -33.1167 253.7162 -4.3599
v  0.0000 255.9055 0.0000
# 71 vertices

vn -0.0654 -0.9979 -0.0000
vn -0.1332 -0.9911 0.0087
vn -0.1332 -0.9911 -0.0000
vn -0.1332 -0.9911 -0.0087
vn -0.2613 -0.9651 0.0171
vn -0.2614 -0.9652 -0.0000
vn -0.2613 -0.9651 -0.0171
vn -0.3849 -0.9226 0.0252
vn -0.3850 -0.9229 -0.0000
vn -0.3849 -0.9226 -0.0252
vn -0.5018 -0.8644 0.0329
vn -0.5020 -0.8648 -0.0000
vn -0.5018 -0.8644 -0.0329
vn -0.6100 -0.7914 0.0400
vn -0.6105 -0.7920 -0.0000
vn -0.6100 -0.7914 -0.0400
vn -0.7077 -0.7050 0.0464
vn -0.7085 -0.7057 -0.0000
vn -0.7077 -0.7050 -0.0464
vn -0.7933 -0.6066 0.0520
vn -0.7944 -0.6074 -0.0000
vn -0.7933 -0.6066 -0.0520
vn -0.8653 -0.4980 0.0567
vn -0.8667 -0.4988 -0.0000
vn -0.8653 -0.4980 -0.0567
vn -0.9226 -0.3810 0.0605
vn -0.9243 -0.3817 -0.0000
vn -0.9226 -0.3810 -0.0605
vn -0.9642 -0.2576 0.0632
vn -0.9661 -0.2581 -0.0000
vn -0.9642 -0.2576 -0.0632
vn -0.9894 -0.1299 0.0648
vn -0.9915 -0.1302 -0.0000
vn -0.9894 -0.1299 -0.0648
vn -0.9979 -0.0000 0.0654
vn -1.0000 -0.0000 -0.0000
vn -0.9979 -0.0000 -0.0654
vn -0.9894 0.1299 0.0648
vn -0.9915 0.1302 -0.0000
vn -0.9894 0.1299 -0.0648
vn -0.9642 0.2576 0.0632
vn -0.9661 0.2581 -0.0000
vn -0.9642 0.2576 -0.0632
vn -0.9226 0.3810 0.0605
vn -0.9243 0.3817 -0.0000
vn -0.9226 0.3810 -0.0605
vn -0.8653 0.4980 0.0567
vn -0.8667 0.4988 -0.0000
vn -0.8653 0.4980 -0.0567
vn -0.7933 0.6066 0.0520
vn -0.7944 0.6074 -0.0000
vn -0.7933 0.6066 -0.0520
vn -0.7077 0.7050 0.0464
vn -0.7085 0.7057 -0.0000
vn -0.7077 0.7050 -0.0464
vn -0.6100 0.7914 0.0400
vn -0.6105 0.7920 -0.0000
vn -0.6100 0.7914 -0.0400
vn -0.5018 0.8644 0.0329
vn -0.5020 0.8648 -0.0000
vn -0.5018 0.8644 -0.0329
vn -0.3849 0.9226 0.0252
vn -0.3850 0.9229 -0.0000
vn -0.3849 0.9226 -0.0252
vn -0.2613 0.9651 0.0171
vn -0.2614 0.9652 -0.0000
vn -0.2613 0.9651 -0.0171
vn -0.1332 0.9911 0.0087
vn -0.1332 0.9911 -0.0000
vn -0.1332 0.9911 -0.0087
vn -0.0654 0.9979 -0.0000
# 71 vertex normals

vt 0.4792 1.0000 0.0000
vt 0.4792 0.9583 0.0000
vt 0.5000 0.9583 0.0000
vt 0.5000 1.0000 0.0000
vt 0.5208 0.9583 0.0000
vt 0.4792 0.9167 0.0000
vt 0.5000 0.9167 0.0000
vt 0.5208 0.9167 0.0000
vt 0.4792 0.8750 0.0000
vt 0.5000 0.8750 0.0000
vt 0.5208 0.8750 0.0000
vt 0.4792 0.8333 0.0000
vt 0.5000 0.8333 0.0000
vt 0.5208 0.8333 0.0000
vt 0.4792 0.7917 0.0000
vt 0.5000 0.7917 0.0000
vt 0.5208 0.7917 0.0000
vt 0.4792 0.7500 0.0000
vt 0.5000 0.7500 0.0000
vt 0.5208 0.7500 0.0000
vt 0.4792 0.7083 0.0000
vt 0.5000 0.7083 0.0000
vt 0.5208 0.7083 0.0000
vt 0.4792 0.6667 0.0000
vt 0.5000 0.6667 0.0000
vt 0.5208 0.6667 0.0000
vt 0.4792 0.6250 0.0000
vt 0.5000 0.6250 0.0000
vt 0.5208 0.6250 0.0000
vt 0.4792 0.5833 0.0000
vt 0.5000 0.5833 0.0000
vt 0.5208 0.5833 0.0000
vt 0.4792 0.5417 0.0000
vt 0.5000 0.5417 0.0000
vt 0.5208 0.5417 0.0000
vt 0.4792 0.5000 0.0000
vt 0.5000 0.5000 0.0000
vt 0.5208 0.5000 0.0000
vt 0.4792 0.4583 0.0000
vt 0.5000 0.4583 0.0000
vt 0.5208 0.4583 0.0000
vt 0.4792 0.4167 0.0000
vt 0.5000 0.4167 0.0000
vt 0.5208 0.4167 0.0000
vt 0.4792 0.3750 0.0000
vt 0.5000 0.3750 0.0000
vt 0.5208 0.3750 0.0000
vt 0.4792 0.3333 0.0000
vt 0.5000 0.3333 0.0000
vt 0.5208 0.3333 0.0000
vt 0.4792 0.2917 0.0000
vt 0.5000 0.2917 0.0000
vt 0.5208 0.2917 0.0000
vt 0.4792 0.2500 0.0000
vt 0.5000 0.2500 0.0000
vt 0.5208 0.2500 0.0000
vt 0.4792 0.2083 0.0000
vt 0.5000 0.2083 0.0000
vt 0.5208 0.2083 0.0000
vt 0.4792 0.1667 0.0000
vt 0.5000 0.1667 0.0000
vt 0.5208 0.1667 0.0000
vt 0.4792 0.1250 0.0000
vt 0.5000 0.1250 0.0000
vt 0.5208 0.1250 0.0000
vt 0.4792 0.0833 0.0000
vt 0.5000 0.0833 0.0000
vt 0.5208 0.0833 0.0000
vt 0.4792 0.0417 0.0000
vt 0.5000 0.0417 0.0000
vt 0.5208 0.0417 0.0000
vt 0.4792 0.0000 0.0000
vt 0.5000 0.0000 0.0000
# 73 texture coords

g GMT00
usemtl 01___Default
s 1
f 1/1/1 2/2/2 3/3/3 
f 1/4/1 3/3/3 4/5/4 
f 2/2/2 5/6/5 6/7/6 3/3/3 
f 3/3/3 6/7/6 7/8/7 4/5/4 
f 5/6/5 8/9/8 9/10/9 6/7/6 
f 6/7/6 9/10/9 10/11/10 7/8/7 
f 8/9/8 11/12/11 12/13/12 9/10/9 
f 9/10/9 12/13/12 13/14/13 10/11/10 
f 11/12/11 14/15/14 15/16/15 12/13/12 
f 12/13/12 15/16/15 16/17/16 13/14/13 
f 14/15/14 17/18/17 18/19/18 15/16/15 
f 15/16/15 18/19/18 19/20/19 16/17/16 
f 17/18/17 20/21/20 21/22/21 18/19/18 
f 18/19/18 21/22/21 22/23/22 19/20/19 
f 20/21/20 23/24/23 24/25/24 21/22/21 
f 21/22/21 24/25/24 25/26/25 22/23/22 
f 23/24/23 26/27/26 27/28/27 24/25/24 
f 24/25/24 27/28/27 28/29/28 25/26/25 
f 26/27/26 29/30/29 30/31/30 27/28/27 
f 27/28/27 30/31/30 31/32/31 28/29/28 
f 29/30/29 32/33/32 33/34/33 30/31/30 
f 30/31/30 33/34/33 34/35/34 31/32/31 
f 32/33/32 35/36/35 36/37/36 33/34/33 
f 33/34/33 36/37/36 37/38/37 34/35/34 
f 35/36/35 38/39/38 39/40/39 36/37/36 
f 36/37/36 39/40/39 40/41/40 37/38/37 
f 38/39/38 41/42/41 42/43/42 39/40/39 
f 39/40/39 42/43/42 43/44/43 40/41/40 
f 41/42/41 44/45/44 45/46/45 42/43/42 
f 42/43/42 45/46/45 46/47/46 43/44/43 
f 44/45/44 47/48/47 48/49/48 45/46/45 
f 45/46/45 48/49/48 49/50/49 46/47/46 
f 47/48/47 50/51/50 51/52/51 48/49/48 
f 48/49/48 51/52/51 52/53/52 49/50/49 
f 50/51/50 53/54/53 54/55/54 51/52/51 
f 51/52/51 54/55/54 55/56/55 52/53/52 
f 53/54/53 56/57/56 57/58/57 54/55/54 
f 54/55/54 57/58/57 58/59/58 55/56/55 
f 56/57/56 59/60/59 60/61/60 57/58/57 
f 57/58/57 60/61/60 61/62/61 58/59/58 
f 59/60/59 62/63/62 63/64/63 60/61/60 
f 60/61/60 63/64/63 64/65/64 61/62/61 
f 62/63/62 65/66/65 66/67/66 63/64/63 
f 63/64/63 66/67/66 67/68/67 64/65/64 
f 65/66/65 68/69/68 69/70/69 66/67/66 
f 66/67/66 69/70/69 70/71/70 67/68/67 
f 71/72/71 69/70/69 68/69/68 
f 71/73/71 70/71/70 69/70/69 
# 44 polygons - 4 triangles

