# 3ds Max Wavefront OBJ Exporter v0.97b - (c)2007 guruware
# File Created: 27.02.2018 15:57:34

mtllib globy.mtl

#
# object GMT12
#

v  -0.0000 -255.9055 0.0000
v  33.4024 -253.7162 0.0000
v  33.1166 -253.7162 4.3599
v  33.1166 -253.7162 -4.3597
v  66.2332 -247.1857 0.0000
v  65.6666 -247.1857 8.6452
v  65.6666 -247.1857 -8.6448
v  97.9308 -236.4259 0.0000
v  97.0930 -236.4259 12.7825
v  97.0930 -236.4259 -12.7820
v  127.9527 -221.6207 0.0000
v  126.8581 -221.6207 16.7012
v  126.8582 -221.6207 -16.7005
v  155.7854 -203.0235 0.0000
v  154.4526 -203.0235 20.3341
v  154.4527 -203.0235 -20.3332
v  180.9525 -180.9525 0.0000
v  179.4044 -180.9525 23.6190
v  179.4046 -180.9525 -23.6180
v  203.0235 -155.7854 0.0000
v  201.2866 -155.7854 26.4999
v  201.2867 -155.7854 -26.4987
v  221.6207 -127.9528 0.0000
v  219.7247 -127.9528 28.9273
v  219.7248 -127.9528 -28.9260
v  236.4258 -97.9309 0.0000
v  234.4032 -97.9309 30.8598
v  234.4034 -97.9309 -30.8584
v  247.1857 -66.2333 0.0000
v  245.0710 -66.2333 32.2642
v  245.0712 -66.2333 -32.2628
v  253.7162 -33.4024 0.0000
v  251.5456 -33.4024 33.1166
v  251.5458 -33.4024 -33.1152
v  255.9055 -0.0001 0.0000
v  253.7162 -0.0001 33.4024
v  253.7164 -0.0001 -33.4009
v  253.7162 33.4023 0.0000
v  251.5456 33.4023 33.1166
v  251.5458 33.4023 -33.1152
v  247.1858 66.2331 0.0000
v  245.0711 66.2331 32.2642
v  245.0712 66.2331 -32.2628
v  236.4259 97.9307 0.0000
v  234.4033 97.9307 30.8598
v  234.4034 97.9307 -30.8584
v  221.6207 127.9527 0.0000
v  219.7247 127.9527 28.9273
v  219.7249 127.9527 -28.9260
v  203.0235 155.7854 0.0000
v  201.2867 155.7854 26.4999
v  201.2868 155.7854 -26.4987
v  180.9526 180.9525 0.0000
v  179.4045 180.9525 23.6190
v  179.4046 180.9525 -23.6180
v  155.7855 203.0234 0.0000
v  154.4527 203.0234 20.3341
v  154.4528 203.0234 -20.3332
v  127.9528 221.6206 0.0000
v  126.8582 221.6206 16.7012
v  126.8583 221.6206 -16.7005
v  97.9309 236.4258 0.0000
v  97.0931 236.4258 12.7825
v  97.0932 236.4258 -12.7820
v  66.2333 247.1857 0.0000
v  65.6667 247.1857 8.6452
v  65.6667 247.1857 -8.6448
v  33.4025 253.7162 0.0000
v  33.1167 253.7162 4.3599
v  33.1167 253.7162 -4.3597
v  0.0000 255.9055 0.0000
# 71 vertices

vn 0.0654 -0.9979 0.0000
vn 0.1332 -0.9911 0.0000
vn 0.1332 -0.9911 0.0087
vn 0.1332 -0.9911 -0.0087
vn 0.2614 -0.9652 0.0000
vn 0.2613 -0.9651 0.0171
vn 0.2613 -0.9651 -0.0171
vn 0.3850 -0.9229 0.0000
vn 0.3849 -0.9226 0.0252
vn 0.3849 -0.9226 -0.0252
vn 0.5020 -0.8648 0.0000
vn 0.5018 -0.8644 0.0329
vn 0.5018 -0.8644 -0.0329
vn 0.6105 -0.7920 0.0000
vn 0.6100 -0.7914 0.0400
vn 0.6100 -0.7914 -0.0400
vn 0.7085 -0.7057 0.0000
vn 0.7077 -0.7050 0.0464
vn 0.7077 -0.7050 -0.0464
vn 0.7944 -0.6074 0.0000
vn 0.7933 -0.6066 0.0520
vn 0.7933 -0.6066 -0.0520
vn 0.8667 -0.4988 0.0000
vn 0.8653 -0.4980 0.0567
vn 0.8653 -0.4980 -0.0567
vn 0.9243 -0.3817 0.0000
vn 0.9226 -0.3810 0.0605
vn 0.9226 -0.3810 -0.0605
vn 0.9661 -0.2581 0.0000
vn 0.9642 -0.2576 0.0632
vn 0.9642 -0.2576 -0.0632
vn 0.9915 -0.1302 0.0000
vn 0.9894 -0.1299 0.0648
vn 0.9894 -0.1299 -0.0648
vn 1.0000 -0.0000 0.0000
vn 0.9979 -0.0000 0.0654
vn 0.9979 -0.0000 -0.0654
vn 0.9915 0.1302 0.0000
vn 0.9894 0.1299 0.0648
vn 0.9894 0.1299 -0.0648
vn 0.9661 0.2581 0.0000
vn 0.9642 0.2576 0.0632
vn 0.9642 0.2576 -0.0632
vn 0.9243 0.3817 0.0000
vn 0.9226 0.3810 0.0605
vn 0.9226 0.3810 -0.0605
vn 0.8667 0.4988 0.0000
vn 0.8653 0.4980 0.0567
vn 0.8653 0.4980 -0.0567
vn 0.7944 0.6074 0.0000
vn 0.7933 0.6066 0.0520
vn 0.7933 0.6066 -0.0520
vn 0.7085 0.7057 0.0000
vn 0.7077 0.7050 0.0464
vn 0.7077 0.7050 -0.0464
vn 0.6105 0.7920 0.0000
vn 0.6100 0.7914 0.0400
vn 0.6100 0.7914 -0.0400
vn 0.5020 0.8648 0.0000
vn 0.5018 0.8644 0.0329
vn 0.5018 0.8644 -0.0329
vn 0.3850 0.9229 0.0000
vn 0.3849 0.9226 0.0252
vn 0.3849 0.9226 -0.0252
vn 0.2614 0.9652 0.0000
vn 0.2613 0.9651 0.0171
vn 0.2613 0.9651 -0.0171
vn 0.1332 0.9911 0.0000
vn 0.1332 0.9911 0.0087
vn 0.1332 0.9911 -0.0087
vn 0.0654 0.9979 0.0000
# 71 vertex normals

vt 0.0000 1.0000 0.0000
vt 0.0000 0.9583 0.0000
vt 0.0208 0.9583 0.0000
vt 0.9792 1.0000 0.0000
vt 0.9792 0.9583 0.0000
vt 1.0000 0.9583 0.0000
vt 0.0000 0.9167 0.0000
vt 0.0208 0.9167 0.0000
vt 0.9792 0.9167 0.0000
vt 1.0000 0.9167 0.0000
vt 0.0000 0.8750 0.0000
vt 0.0208 0.8750 0.0000
vt 0.9792 0.8750 0.0000
vt 1.0000 0.8750 0.0000
vt 0.0000 0.8333 0.0000
vt 0.0208 0.8333 0.0000
vt 0.9792 0.8333 0.0000
vt 1.0000 0.8333 0.0000
vt 0.0000 0.7917 0.0000
vt 0.0208 0.7917 0.0000
vt 0.9792 0.7917 0.0000
vt 1.0000 0.7917 0.0000
vt 0.0000 0.7500 0.0000
vt 0.0208 0.7500 0.0000
vt 0.9792 0.7500 0.0000
vt 1.0000 0.7500 0.0000
vt 0.0000 0.7083 0.0000
vt 0.0208 0.7083 0.0000
vt 0.9792 0.7083 0.0000
vt 1.0000 0.7083 0.0000
vt 0.0000 0.6667 0.0000
vt 0.0208 0.6667 0.0000
vt 0.9792 0.6667 0.0000
vt 1.0000 0.6667 0.0000
vt 0.0000 0.6250 0.0000
vt 0.0208 0.6250 0.0000
vt 0.9792 0.6250 0.0000
vt 1.0000 0.6250 0.0000
vt 0.0000 0.5833 0.0000
vt 0.0208 0.5833 0.0000
vt 0.9792 0.5833 0.0000
vt 1.0000 0.5833 0.0000
vt 0.0000 0.5417 0.0000
vt 0.0208 0.5417 0.0000
vt 0.9792 0.5417 0.0000
vt 1.0000 0.5417 0.0000
vt 0.0000 0.5000 0.0000
vt 0.0208 0.5000 0.0000
vt 0.9792 0.5000 0.0000
vt 1.0000 0.5000 0.0000
vt 0.0000 0.4583 0.0000
vt 0.0208 0.4583 0.0000
vt 0.9792 0.4583 0.0000
vt 1.0000 0.4583 0.0000
vt 0.0000 0.4167 0.0000
vt 0.0208 0.4167 0.0000
vt 0.9792 0.4167 0.0000
vt 1.0000 0.4167 0.0000
vt 0.0000 0.3750 0.0000
vt 0.0208 0.3750 0.0000
vt 0.9792 0.3750 0.0000
vt 1.0000 0.3750 0.0000
vt 0.0000 0.3333 0.0000
vt 0.0208 0.3333 0.0000
vt 0.9792 0.3333 0.0000
vt 1.0000 0.3333 0.0000
vt 0.0000 0.2917 0.0000
vt 0.0208 0.2917 0.0000
vt 0.9792 0.2917 0.0000
vt 1.0000 0.2917 0.0000
vt 0.0000 0.2500 0.0000
vt 0.0208 0.2500 0.0000
vt 0.9792 0.2500 0.0000
vt 1.0000 0.2500 0.0000
vt 0.0000 0.2083 0.0000
vt 0.0208 0.2083 0.0000
vt 0.9792 0.2083 0.0000
vt 1.0000 0.2083 0.0000
vt 0.0000 0.1667 0.0000
vt 0.0208 0.1667 0.0000
vt 0.9792 0.1667 0.0000
vt 1.0000 0.1667 0.0000
vt 0.0000 0.1250 0.0000
vt 0.0208 0.1250 0.0000
vt 0.9792 0.1250 0.0000
vt 1.0000 0.1250 0.0000
vt 0.0000 0.0833 0.0000
vt 0.0208 0.0833 0.0000
vt 0.9792 0.0833 0.0000
vt 1.0000 0.0833 0.0000
vt 0.0000 0.0417 0.0000
vt 0.0208 0.0417 0.0000
vt 0.9792 0.0417 0.0000
vt 1.0000 0.0417 0.0000
vt 0.0000 0.0000 0.0000
vt 0.9792 0.0000 0.0000
# 96 texture coords

g GMT12
usemtl 01___Default
s 1
f 1/1/1 2/2/2 3/3/3 
f 1/4/1 4/5/4 2/6/2 
f 2/2/2 5/7/5 6/8/6 3/3/3 
f 4/5/4 7/9/7 5/10/5 2/6/2 
f 5/7/5 8/11/8 9/12/9 6/8/6 
f 7/9/7 10/13/10 8/14/8 5/10/5 
f 8/11/8 11/15/11 12/16/12 9/12/9 
f 10/13/10 13/17/13 11/18/11 8/14/8 
f 11/15/11 14/19/14 15/20/15 12/16/12 
f 13/17/13 16/21/16 14/22/14 11/18/11 
f 14/19/14 17/23/17 18/24/18 15/20/15 
f 16/21/16 19/25/19 17/26/17 14/22/14 
f 17/23/17 20/27/20 21/28/21 18/24/18 
f 19/25/19 22/29/22 20/30/20 17/26/17 
f 20/27/20 23/31/23 24/32/24 21/28/21 
f 22/29/22 25/33/25 23/34/23 20/30/20 
f 23/31/23 26/35/26 27/36/27 24/32/24 
f 25/33/25 28/37/28 26/38/26 23/34/23 
f 26/35/26 29/39/29 30/40/30 27/36/27 
f 28/37/28 31/41/31 29/42/29 26/38/26 
f 29/39/29 32/43/32 33/44/33 30/40/30 
f 31/41/31 34/45/34 32/46/32 29/42/29 
f 32/43/32 35/47/35 36/48/36 33/44/33 
f 34/45/34 37/49/37 35/50/35 32/46/32 
f 35/47/35 38/51/38 39/52/39 36/48/36 
f 37/49/37 40/53/40 38/54/38 35/50/35 
f 38/51/38 41/55/41 42/56/42 39/52/39 
f 40/53/40 43/57/43 41/58/41 38/54/38 
f 41/55/41 44/59/44 45/60/45 42/56/42 
f 43/57/43 46/61/46 44/62/44 41/58/41 
f 44/59/44 47/63/47 48/64/48 45/60/45 
f 46/61/46 49/65/49 47/66/47 44/62/44 
f 47/63/47 50/67/50 51/68/51 48/64/48 
f 49/65/49 52/69/52 50/70/50 47/66/47 
f 50/67/50 53/71/53 54/72/54 51/68/51 
f 52/69/52 55/73/55 53/74/53 50/70/50 
f 53/71/53 56/75/56 57/76/57 54/72/54 
f 55/73/55 58/77/58 56/78/56 53/74/53 
f 56/75/56 59/79/59 60/80/60 57/76/57 
f 58/77/58 61/81/61 59/82/59 56/78/56 
f 59/79/59 62/83/62 63/84/63 60/80/60 
f 61/81/61 64/85/64 62/86/62 59/82/59 
f 62/83/62 65/87/65 66/88/66 63/84/63 
f 64/85/64 67/89/67 65/90/65 62/86/62 
f 65/87/65 68/91/68 69/92/69 66/88/66 
f 67/89/67 70/93/70 68/94/68 65/90/65 
f 71/95/71 69/92/69 68/91/68 
f 71/96/71 68/94/68 70/93/70 
# 44 polygons - 4 triangles

