# 3ds Max Wavefront OBJ Exporter v0.97b - (c)2007 guruware
# File Created: 27.02.2018 16:07:35

mtllib globy.mtl

#
# object GMTM02
#

v  -0.0000 -255.9055 0.0000
v  -30.8598 -253.7162 -12.7826
v  -28.9273 -253.7162 -16.7012
v  -26.4999 -253.7162 -20.3341
v  -61.1915 -247.1857 -25.3465
v  -57.3596 -247.1857 -33.1167
v  -52.5463 -247.1857 -40.3203
v  -90.4762 -236.4259 -37.4766
v  -84.8105 -236.4259 -48.9656
v  -77.6936 -236.4259 -59.6166
v  -118.2129 -221.6207 -48.9656
v  -110.8102 -221.6207 -63.9766
v  -101.5116 -221.6207 -77.8929
v  -143.9269 -203.0235 -59.6167
v  -134.9140 -203.0235 -77.8929
v  -123.5927 -203.0235 -94.8364
v  -167.1782 -180.9525 -69.2478
v  -156.7093 -180.9525 -90.4765
v  -143.5591 -180.9525 -110.1572
v  -187.5691 -155.7854 -77.6940
v  -175.8233 -155.7854 -101.5121
v  -161.0691 -155.7854 -123.5932
v  -204.7507 -127.9528 -84.8109
v  -191.9289 -127.9528 -110.8107
v  -175.8232 -127.9528 -134.9145
v  -218.4289 -97.9308 -90.4766
v  -204.7506 -97.9308 -118.2133
v  -187.5690 -97.9308 -143.9273
v  -228.3697 -66.2332 -94.5942
v  -214.0689 -66.2332 -123.5933
v  -196.1053 -66.2332 -150.4775
v  -234.4030 -33.4024 -97.0934
v  -219.7244 -33.4024 -126.8585
v  -201.2863 -33.4024 -154.4530
v  -236.4257 -0.0000 -97.9312
v  -221.6205 -0.0000 -127.9532
v  -203.0232 -0.0000 -155.7858
v  -234.4031 33.4023 -97.0934
v  -219.7245 33.4023 -126.8585
v  -201.2863 33.4023 -154.4530
v  -228.3697 66.2332 -94.5943
v  -214.0689 66.2332 -123.5933
v  -196.1053 66.2332 -150.4775
v  -218.4289 97.9308 -90.4766
v  -204.7506 97.9308 -118.2133
v  -187.5690 97.9308 -143.9273
v  -204.7507 127.9527 -84.8109
v  -191.9289 127.9527 -110.8107
v  -175.8232 127.9527 -134.9145
v  -187.5691 155.7854 -77.6940
v  -175.8233 155.7854 -101.5121
v  -161.0691 155.7854 -123.5932
v  -167.1783 180.9525 -69.2478
v  -156.7093 180.9525 -90.4766
v  -143.5591 180.9525 -110.1572
v  -143.9269 203.0235 -59.6167
v  -134.9140 203.0235 -77.8930
v  -123.5927 203.0235 -94.8364
v  -118.2129 221.6207 -48.9656
v  -110.8103 221.6207 -63.9766
v  -101.5116 221.6207 -77.8929
v  -90.4762 236.4259 -37.4767
v  -84.8105 236.4258 -48.9656
v  -77.6936 236.4258 -59.6167
v  -61.1915 247.1857 -25.3465
v  -57.3596 247.1857 -33.1168
v  -52.5463 247.1857 -40.3204
v  -30.8598 253.7162 -12.7826
v  -28.9273 253.7162 -16.7013
v  -26.4999 253.7162 -20.3342
v  0.0000 255.9055 0.0000
# 71 vertices

vn -0.0566 -0.9979 -0.0327
vn -0.1197 -0.9911 -0.0590
vn -0.1154 -0.9911 -0.0666
vn -0.1110 -0.9911 -0.0742
vn -0.2349 -0.9651 -0.1158
vn -0.2263 -0.9652 -0.1307
vn -0.2177 -0.9651 -0.1455
vn -0.3459 -0.9226 -0.1706
vn -0.3334 -0.9229 -0.1925
vn -0.3207 -0.9226 -0.2143
vn -0.4510 -0.8644 -0.2224
vn -0.4348 -0.8648 -0.2510
vn -0.4181 -0.8644 -0.2794
vn -0.5483 -0.7914 -0.2704
vn -0.5287 -0.7920 -0.3052
vn -0.5083 -0.7914 -0.3396
vn -0.6361 -0.7050 -0.3137
vn -0.6135 -0.7057 -0.3542
vn -0.5897 -0.7050 -0.3940
vn -0.7130 -0.6066 -0.3516
vn -0.6879 -0.6074 -0.3972
vn -0.6610 -0.6066 -0.4417
vn -0.7777 -0.4980 -0.3835
vn -0.7506 -0.4988 -0.4334
vn -0.7210 -0.4980 -0.4818
vn -0.8292 -0.3810 -0.4089
vn -0.8004 -0.3817 -0.4621
vn -0.7687 -0.3810 -0.5137
vn -0.8666 -0.2576 -0.4274
vn -0.8367 -0.2581 -0.4831
vn -0.8034 -0.2576 -0.5368
vn -0.8893 -0.1299 -0.4385
vn -0.8587 -0.1302 -0.4957
vn -0.8244 -0.1299 -0.5509
vn -0.8969 -0.0000 -0.4423
vn -0.8660 -0.0000 -0.5000
vn -0.8315 -0.0000 -0.5556
vn -0.8893 0.1299 -0.4385
vn -0.8587 0.1302 -0.4957
vn -0.8244 0.1299 -0.5509
vn -0.8666 0.2576 -0.4274
vn -0.8367 0.2581 -0.4831
vn -0.8034 0.2576 -0.5368
vn -0.8292 0.3810 -0.4089
vn -0.8004 0.3817 -0.4621
vn -0.7687 0.3810 -0.5137
vn -0.7777 0.4980 -0.3835
vn -0.7506 0.4988 -0.4334
vn -0.7210 0.4980 -0.4818
vn -0.7130 0.6066 -0.3516
vn -0.6879 0.6074 -0.3972
vn -0.6610 0.6066 -0.4417
vn -0.6361 0.7050 -0.3137
vn -0.6135 0.7057 -0.3542
vn -0.5897 0.7050 -0.3940
vn -0.5483 0.7914 -0.2704
vn -0.5287 0.7920 -0.3052
vn -0.5083 0.7914 -0.3396
vn -0.4510 0.8644 -0.2224
vn -0.4348 0.8648 -0.2510
vn -0.4181 0.8644 -0.2794
vn -0.3459 0.9226 -0.1706
vn -0.3334 0.9229 -0.1925
vn -0.3207 0.9226 -0.2143
vn -0.2349 0.9651 -0.1158
vn -0.2263 0.9652 -0.1307
vn -0.2177 0.9651 -0.1455
vn -0.1197 0.9911 -0.0590
vn -0.1154 0.9911 -0.0666
vn -0.1110 0.9911 -0.0742
vn -0.0566 0.9979 -0.0327
# 71 vertex normals

vt 0.5625 1.0000 0.0000
vt 0.5625 0.9583 0.0000
vt 0.5833 0.9583 0.0000
vt 0.5833 1.0000 0.0000
vt 0.6042 0.9583 0.0000
vt 0.5625 0.9167 0.0000
vt 0.5833 0.9167 0.0000
vt 0.6042 0.9167 0.0000
vt 0.5625 0.8750 0.0000
vt 0.5833 0.8750 0.0000
vt 0.6042 0.8750 0.0000
vt 0.5625 0.8333 0.0000
vt 0.5833 0.8333 0.0000
vt 0.6042 0.8333 0.0000
vt 0.5625 0.7917 0.0000
vt 0.5833 0.7917 0.0000
vt 0.6042 0.7917 0.0000
vt 0.5625 0.7500 0.0000
vt 0.5833 0.7500 0.0000
vt 0.6042 0.7500 0.0000
vt 0.5625 0.7083 0.0000
vt 0.5833 0.7083 0.0000
vt 0.6042 0.7083 0.0000
vt 0.5625 0.6667 0.0000
vt 0.5833 0.6667 0.0000
vt 0.6042 0.6667 0.0000
vt 0.5625 0.6250 0.0000
vt 0.5833 0.6250 0.0000
vt 0.6042 0.6250 0.0000
vt 0.5625 0.5833 0.0000
vt 0.5833 0.5833 0.0000
vt 0.6042 0.5833 0.0000
vt 0.5625 0.5417 0.0000
vt 0.5833 0.5417 0.0000
vt 0.6042 0.5417 0.0000
vt 0.5625 0.5000 0.0000
vt 0.5833 0.5000 0.0000
vt 0.6042 0.5000 0.0000
vt 0.5625 0.4583 0.0000
vt 0.5833 0.4583 0.0000
vt 0.6042 0.4583 0.0000
vt 0.5625 0.4167 0.0000
vt 0.5833 0.4167 0.0000
vt 0.6042 0.4167 0.0000
vt 0.5625 0.3750 0.0000
vt 0.5833 0.3750 0.0000
vt 0.6042 0.3750 0.0000
vt 0.5625 0.3333 0.0000
vt 0.5833 0.3333 0.0000
vt 0.6042 0.3333 0.0000
vt 0.5625 0.2917 0.0000
vt 0.5833 0.2917 0.0000
vt 0.6042 0.2917 0.0000
vt 0.5625 0.2500 0.0000
vt 0.5833 0.2500 0.0000
vt 0.6042 0.2500 0.0000
vt 0.5625 0.2083 0.0000
vt 0.5833 0.2083 0.0000
vt 0.6042 0.2083 0.0000
vt 0.5625 0.1667 0.0000
vt 0.5833 0.1667 0.0000
vt 0.6042 0.1667 0.0000
vt 0.5625 0.1250 0.0000
vt 0.5833 0.1250 0.0000
vt 0.6042 0.1250 0.0000
vt 0.5625 0.0833 0.0000
vt 0.5833 0.0833 0.0000
vt 0.6042 0.0833 0.0000
vt 0.5625 0.0417 0.0000
vt 0.5833 0.0417 0.0000
vt 0.6042 0.0417 0.0000
vt 0.5625 0.0000 0.0000
vt 0.5833 0.0000 0.0000
# 73 texture coords

g GMTM02
usemtl 01___Default
s 1
f 1/1/1 2/2/2 3/3/3 
f 1/4/1 3/3/3 4/5/4 
f 2/2/2 5/6/5 6/7/6 3/3/3 
f 3/3/3 6/7/6 7/8/7 4/5/4 
f 5/6/5 8/9/8 9/10/9 6/7/6 
f 6/7/6 9/10/9 10/11/10 7/8/7 
f 8/9/8 11/12/11 12/13/12 9/10/9 
f 9/10/9 12/13/12 13/14/13 10/11/10 
f 11/12/11 14/15/14 15/16/15 12/13/12 
f 12/13/12 15/16/15 16/17/16 13/14/13 
f 14/15/14 17/18/17 18/19/18 15/16/15 
f 15/16/15 18/19/18 19/20/19 16/17/16 
f 17/18/17 20/21/20 21/22/21 18/19/18 
f 18/19/18 21/22/21 22/23/22 19/20/19 
f 20/21/20 23/24/23 24/25/24 21/22/21 
f 21/22/21 24/25/24 25/26/25 22/23/22 
f 23/24/23 26/27/26 27/28/27 24/25/24 
f 24/25/24 27/28/27 28/29/28 25/26/25 
f 26/27/26 29/30/29 30/31/30 27/28/27 
f 27/28/27 30/31/30 31/32/31 28/29/28 
f 29/30/29 32/33/32 33/34/33 30/31/30 
f 30/31/30 33/34/33 34/35/34 31/32/31 
f 32/33/32 35/36/35 36/37/36 33/34/33 
f 33/34/33 36/37/36 37/38/37 34/35/34 
f 35/36/35 38/39/38 39/40/39 36/37/36 
f 36/37/36 39/40/39 40/41/40 37/38/37 
f 38/39/38 41/42/41 42/43/42 39/40/39 
f 39/40/39 42/43/42 43/44/43 40/41/40 
f 41/42/41 44/45/44 45/46/45 42/43/42 
f 42/43/42 45/46/45 46/47/46 43/44/43 
f 44/45/44 47/48/47 48/49/48 45/46/45 
f 45/46/45 48/49/48 49/50/49 46/47/46 
f 47/48/47 50/51/50 51/52/51 48/49/48 
f 48/49/48 51/52/51 52/53/52 49/50/49 
f 50/51/50 53/54/53 54/55/54 51/52/51 
f 51/52/51 54/55/54 55/56/55 52/53/52 
f 53/54/53 56/57/56 57/58/57 54/55/54 
f 54/55/54 57/58/57 58/59/58 55/56/55 
f 56/57/56 59/60/59 60/61/60 57/58/57 
f 57/58/57 60/61/60 61/62/61 58/59/58 
f 59/60/59 62/63/62 63/64/63 60/61/60 
f 60/61/60 63/64/63 64/65/64 61/62/61 
f 62/63/62 65/66/65 66/67/66 63/64/63 
f 63/64/63 66/67/66 67/68/67 64/65/64 
f 65/66/65 68/69/68 69/70/69 66/67/66 
f 66/67/66 69/70/69 70/71/70 67/68/67 
f 71/72/71 69/70/69 68/69/68 
f 71/73/71 70/71/70 69/70/69 
# 44 polygons - 4 triangles

