# 3ds Max Wavefront OBJ Exporter v0.97b - (c)2007 guruware
# File Created: 27.02.2018 16:03:23

mtllib globy.mtl

#
# object GMTM11
#

v  -0.0000 -255.9055 0.0000
v  30.8598 -253.7162 -12.7824
v  32.2642 -253.7162 -8.6450
v  33.1166 -253.7162 -4.3597
v  61.1916 -247.1857 -25.3460
v  63.9765 -247.1857 -17.1421
v  65.6666 -247.1857 -8.6448
v  90.4764 -236.4259 -37.4760
v  94.5940 -236.4259 -25.3458
v  97.0930 -236.4259 -12.7820
v  118.2132 -221.6207 -48.9648
v  123.5930 -221.6207 -33.1159
v  126.8582 -221.6207 -16.7005
v  143.9273 -203.0235 -59.6157
v  150.4774 -203.0235 -40.3194
v  154.4527 -203.0235 -20.3332
v  167.1787 -180.9525 -69.2466
v  174.7870 -180.9525 -46.8330
v  179.4046 -180.9525 -23.6180
v  187.5697 -155.7854 -77.6927
v  196.1059 -155.7854 -52.5452
v  201.2867 -155.7854 -26.4987
v  204.7512 -127.9528 -84.8095
v  214.0694 -127.9528 -57.3585
v  219.7248 -127.9528 -28.9260
v  218.4295 -97.9309 -90.4751
v  228.3702 -97.9309 -61.1902
v  234.4034 -97.9309 -30.8584
v  228.3704 -66.2333 -94.5927
v  238.7634 -66.2333 -63.9750
v  245.0712 -66.2333 -32.2628
v  234.4037 -33.4024 -97.0917
v  245.0714 -33.4024 -65.6652
v  251.5458 -33.4024 -33.1152
v  236.4264 -0.0001 -97.9295
v  247.1861 -0.0001 -66.2318
v  253.7164 -0.0001 -33.4009
v  234.4037 33.4023 -97.0917
v  245.0714 33.4023 -65.6652
v  251.5458 33.4023 -33.1152
v  228.3704 66.2331 -94.5927
v  238.7635 66.2331 -63.9750
v  245.0712 66.2331 -32.2628
v  218.4296 97.9307 -90.4751
v  228.3702 97.9307 -61.1903
v  234.4034 97.9307 -30.8584
v  204.7513 127.9527 -84.8095
v  214.0695 127.9527 -57.3585
v  219.7249 127.9527 -28.9260
v  187.5697 155.7854 -77.6927
v  196.1060 155.7854 -52.5453
v  201.2868 155.7854 -26.4987
v  167.1788 180.9525 -69.2467
v  174.7870 180.9525 -46.8330
v  179.4046 180.9525 -23.6180
v  143.9273 203.0234 -59.6157
v  150.4774 203.0234 -40.3194
v  154.4528 203.0234 -20.3332
v  118.2133 221.6206 -48.9648
v  123.5931 221.6206 -33.1159
v  126.8583 221.6206 -16.7005
v  90.4766 236.4258 -37.4760
v  94.5941 236.4258 -25.3458
v  97.0932 236.4258 -12.7820
v  61.1918 247.1857 -25.3461
v  63.9766 247.1857 -17.1421
v  65.6667 247.1857 -8.6448
v  30.8599 253.7162 -12.7824
v  32.2644 253.7162 -8.6450
v  33.1167 253.7162 -4.3597
v  0.0000 255.9055 0.0000
# 71 vertices

vn 0.0632 -0.9979 -0.0169
vn 0.1264 -0.9911 -0.0429
vn 0.1287 -0.9911 -0.0345
vn 0.1309 -0.9911 -0.0260
vn 0.2480 -0.9651 -0.0842
vn 0.2525 -0.9652 -0.0676
vn 0.2568 -0.9651 -0.0511
vn 0.3652 -0.9226 -0.1240
vn 0.3719 -0.9229 -0.0996
vn 0.3783 -0.9226 -0.0752
vn 0.4762 -0.8644 -0.1616
vn 0.4849 -0.8648 -0.1299
vn 0.4932 -0.8644 -0.0981
vn 0.5789 -0.7914 -0.1965
vn 0.5897 -0.7920 -0.1580
vn 0.5995 -0.7914 -0.1193
vn 0.6716 -0.7050 -0.2280
vn 0.6843 -0.7057 -0.1834
vn 0.6956 -0.7050 -0.1384
vn 0.7528 -0.6066 -0.2555
vn 0.7673 -0.6074 -0.2056
vn 0.7797 -0.6066 -0.1551
vn 0.8211 -0.4980 -0.2787
vn 0.8372 -0.4988 -0.2243
vn 0.8505 -0.4980 -0.1692
vn 0.8755 -0.3810 -0.2972
vn 0.8928 -0.3817 -0.2392
vn 0.9068 -0.3810 -0.1804
vn 0.9150 -0.2576 -0.3106
vn 0.9332 -0.2581 -0.2500
vn 0.9477 -0.2576 -0.1885
vn 0.9389 -0.1299 -0.3187
vn 0.9577 -0.1302 -0.2566
vn 0.9725 -0.1299 -0.1934
vn 0.9469 -0.0000 -0.3214
vn 0.9659 -0.0000 -0.2588
vn 0.9808 -0.0000 -0.1951
vn 0.9389 0.1299 -0.3187
vn 0.9577 0.1302 -0.2566
vn 0.9725 0.1299 -0.1934
vn 0.9150 0.2576 -0.3106
vn 0.9332 0.2581 -0.2500
vn 0.9477 0.2576 -0.1885
vn 0.8755 0.3810 -0.2972
vn 0.8928 0.3817 -0.2392
vn 0.9068 0.3810 -0.1804
vn 0.8211 0.4980 -0.2787
vn 0.8372 0.4988 -0.2243
vn 0.8505 0.4980 -0.1692
vn 0.7528 0.6066 -0.2555
vn 0.7673 0.6074 -0.2056
vn 0.7797 0.6066 -0.1551
vn 0.6716 0.7050 -0.2280
vn 0.6843 0.7057 -0.1834
vn 0.6956 0.7050 -0.1384
vn 0.5789 0.7914 -0.1965
vn 0.5897 0.7920 -0.1580
vn 0.5995 0.7914 -0.1193
vn 0.4762 0.8644 -0.1616
vn 0.4849 0.8648 -0.1299
vn 0.4932 0.8644 -0.0981
vn 0.3652 0.9226 -0.1240
vn 0.3719 0.9229 -0.0996
vn 0.3783 0.9226 -0.0752
vn 0.2480 0.9651 -0.0842
vn 0.2525 0.9652 -0.0676
vn 0.2568 0.9651 -0.0511
vn 0.1264 0.9911 -0.0429
vn 0.1287 0.9911 -0.0345
vn 0.1309 0.9911 -0.0260
vn 0.0632 0.9979 -0.0169
# 71 vertex normals

vt 0.9375 1.0000 0.0000
vt 0.9375 0.9583 0.0000
vt 0.9583 0.9583 0.0000
vt 0.9583 1.0000 0.0000
vt 0.9792 0.9583 0.0000
vt 0.9375 0.9167 0.0000
vt 0.9583 0.9167 0.0000
vt 0.9792 0.9167 0.0000
vt 0.9375 0.8750 0.0000
vt 0.9583 0.8750 0.0000
vt 0.9792 0.8750 0.0000
vt 0.9375 0.8333 0.0000
vt 0.9583 0.8333 0.0000
vt 0.9792 0.8333 0.0000
vt 0.9375 0.7917 0.0000
vt 0.9583 0.7917 0.0000
vt 0.9792 0.7917 0.0000
vt 0.9375 0.7500 0.0000
vt 0.9583 0.7500 0.0000
vt 0.9792 0.7500 0.0000
vt 0.9375 0.7083 0.0000
vt 0.9583 0.7083 0.0000
vt 0.9792 0.7083 0.0000
vt 0.9375 0.6667 0.0000
vt 0.9583 0.6667 0.0000
vt 0.9792 0.6667 0.0000
vt 0.9375 0.6250 0.0000
vt 0.9583 0.6250 0.0000
vt 0.9792 0.6250 0.0000
vt 0.9375 0.5833 0.0000
vt 0.9583 0.5833 0.0000
vt 0.9792 0.5833 0.0000
vt 0.9375 0.5417 0.0000
vt 0.9583 0.5417 0.0000
vt 0.9792 0.5417 0.0000
vt 0.9375 0.5000 0.0000
vt 0.9583 0.5000 0.0000
vt 0.9792 0.5000 0.0000
vt 0.9375 0.4583 0.0000
vt 0.9583 0.4583 0.0000
vt 0.9792 0.4583 0.0000
vt 0.9375 0.4167 0.0000
vt 0.9583 0.4167 0.0000
vt 0.9792 0.4167 0.0000
vt 0.9375 0.3750 0.0000
vt 0.9583 0.3750 0.0000
vt 0.9792 0.3750 0.0000
vt 0.9375 0.3333 0.0000
vt 0.9583 0.3333 0.0000
vt 0.9792 0.3333 0.0000
vt 0.9375 0.2917 0.0000
vt 0.9583 0.2917 0.0000
vt 0.9792 0.2917 0.0000
vt 0.9375 0.2500 0.0000
vt 0.9583 0.2500 0.0000
vt 0.9792 0.2500 0.0000
vt 0.9375 0.2083 0.0000
vt 0.9583 0.2083 0.0000
vt 0.9792 0.2083 0.0000
vt 0.9375 0.1667 0.0000
vt 0.9583 0.1667 0.0000
vt 0.9792 0.1667 0.0000
vt 0.9375 0.1250 0.0000
vt 0.9583 0.1250 0.0000
vt 0.9792 0.1250 0.0000
vt 0.9375 0.0833 0.0000
vt 0.9583 0.0833 0.0000
vt 0.9792 0.0833 0.0000
vt 0.9375 0.0417 0.0000
vt 0.9583 0.0417 0.0000
vt 0.9792 0.0417 0.0000
vt 0.9375 0.0000 0.0000
vt 0.9583 0.0000 0.0000
# 73 texture coords

g GMTM11
usemtl 01___Default
s 1
f 1/1/1 2/2/2 3/3/3 
f 1/4/1 3/3/3 4/5/4 
f 2/2/2 5/6/5 6/7/6 3/3/3 
f 3/3/3 6/7/6 7/8/7 4/5/4 
f 5/6/5 8/9/8 9/10/9 6/7/6 
f 6/7/6 9/10/9 10/11/10 7/8/7 
f 8/9/8 11/12/11 12/13/12 9/10/9 
f 9/10/9 12/13/12 13/14/13 10/11/10 
f 11/12/11 14/15/14 15/16/15 12/13/12 
f 12/13/12 15/16/15 16/17/16 13/14/13 
f 14/15/14 17/18/17 18/19/18 15/16/15 
f 15/16/15 18/19/18 19/20/19 16/17/16 
f 17/18/17 20/21/20 21/22/21 18/19/18 
f 18/19/18 21/22/21 22/23/22 19/20/19 
f 20/21/20 23/24/23 24/25/24 21/22/21 
f 21/22/21 24/25/24 25/26/25 22/23/22 
f 23/24/23 26/27/26 27/28/27 24/25/24 
f 24/25/24 27/28/27 28/29/28 25/26/25 
f 26/27/26 29/30/29 30/31/30 27/28/27 
f 27/28/27 30/31/30 31/32/31 28/29/28 
f 29/30/29 32/33/32 33/34/33 30/31/30 
f 30/31/30 33/34/33 34/35/34 31/32/31 
f 32/33/32 35/36/35 36/37/36 33/34/33 
f 33/34/33 36/37/36 37/38/37 34/35/34 
f 35/36/35 38/39/38 39/40/39 36/37/36 
f 36/37/36 39/40/39 40/41/40 37/38/37 
f 38/39/38 41/42/41 42/43/42 39/40/39 
f 39/40/39 42/43/42 43/44/43 40/41/40 
f 41/42/41 44/45/44 45/46/45 42/43/42 
f 42/43/42 45/46/45 46/47/46 43/44/43 
f 44/45/44 47/48/47 48/49/48 45/46/45 
f 45/46/45 48/49/48 49/50/49 46/47/46 
f 47/48/47 50/51/50 51/52/51 48/49/48 
f 48/49/48 51/52/51 52/53/52 49/50/49 
f 50/51/50 53/54/53 54/55/54 51/52/51 
f 51/52/51 54/55/54 55/56/55 52/53/52 
f 53/54/53 56/57/56 57/58/57 54/55/54 
f 54/55/54 57/58/57 58/59/58 55/56/55 
f 56/57/56 59/60/59 60/61/60 57/58/57 
f 57/58/57 60/61/60 61/62/61 58/59/58 
f 59/60/59 62/63/62 63/64/63 60/61/60 
f 60/61/60 63/64/63 64/65/64 61/62/61 
f 62/63/62 65/66/65 66/67/66 63/64/63 
f 63/64/63 66/67/66 67/68/67 64/65/64 
f 65/66/65 68/69/68 69/70/69 66/67/66 
f 66/67/66 69/70/69 70/71/70 67/68/67 
f 71/72/71 69/70/69 68/69/68 
f 71/73/71 70/71/70 69/70/69 
# 44 polygons - 4 triangles

