# 3ds Max Wavefront OBJ Exporter v0.97b - (c)2007 guruware
# File Created: 27.02.2018 16:09:04

mtllib globy.mtl

#
# object GMTP05
#

v  -0.0000 -255.9055 0.0000
v  -4.3599 -253.7162 33.1166
v  -8.6452 -253.7162 32.2642
v  -12.7825 -253.7162 30.8598
v  -8.6452 -247.1857 65.6666
v  -17.1424 -247.1857 63.9764
v  -25.3464 -247.1857 61.1915
v  -12.7825 -236.4259 97.0930
v  -25.3464 -236.4259 94.5939
v  -37.4765 -236.4259 90.4763
v  -16.7012 -221.6207 126.8581
v  -33.1166 -221.6207 123.5929
v  -48.9654 -221.6207 118.2130
v  -20.3341 -203.0235 154.4526
v  -40.3202 -203.0235 150.4772
v  -59.6165 -203.0235 143.9270
v  -23.6190 -180.9525 179.4044
v  -46.8339 -180.9525 174.7867
v  -69.2475 -180.9525 167.1783
v  -26.4999 -155.7854 201.2866
v  -52.5463 -155.7854 196.1056
v  -77.6937 -155.7854 187.5693
v  -28.9273 -127.9528 219.7247
v  -57.3596 -127.9528 214.0691
v  -84.8105 -127.9528 204.7508
v  -30.8597 -97.9308 234.4032
v  -61.1915 -97.9308 228.3699
v  -90.4762 -97.9308 218.4290
v  -32.2642 -66.2333 245.0710
v  -63.9763 -66.2332 238.7631
v  -94.5938 -66.2332 228.3699
v  -33.1166 -33.4024 251.5456
v  -65.6665 -33.4024 245.0710
v  -97.0929 -33.4024 234.4032
v  -33.4023 -0.0000 253.7162
v  -66.2332 -0.0000 247.1858
v  -97.9307 -0.0000 236.4259
v  -33.1166 33.4023 251.5456
v  -65.6665 33.4023 245.0711
v  -97.0929 33.4023 234.4032
v  -32.2642 66.2332 245.0711
v  -63.9763 66.2332 238.7631
v  -94.5938 66.2332 228.3699
v  -30.8597 97.9307 234.4032
v  -61.1915 97.9307 228.3699
v  -90.4762 97.9307 218.4291
v  -28.9272 127.9527 219.7247
v  -57.3596 127.9527 214.0692
v  -84.8105 127.9527 204.7509
v  -26.4998 155.7854 201.2866
v  -52.5463 155.7854 196.1057
v  -77.6937 155.7854 187.5693
v  -23.6190 180.9525 179.4045
v  -46.8339 180.9525 174.7868
v  -69.2475 180.9525 167.1784
v  -20.3340 203.0235 154.4527
v  -40.3202 203.0235 150.4772
v  -59.6165 203.0235 143.9270
v  -16.7011 221.6206 126.8582
v  -33.1166 221.6206 123.5929
v  -48.9654 221.6206 118.2130
v  -12.7825 236.4258 97.0931
v  -25.3463 236.4258 94.5940
v  -37.4765 236.4258 90.4763
v  -8.6451 247.1857 65.6667
v  -17.1424 247.1857 63.9765
v  -25.3464 247.1857 61.1916
v  -4.3599 253.7162 33.1167
v  -8.6452 253.7162 32.2643
v  -12.7825 253.7162 30.8599
v  0.0000 255.9055 0.0000
# 71 vertices

vn -0.0169 -0.9979 0.0632
vn -0.0260 -0.9911 0.1309
vn -0.0345 -0.9911 0.1287
vn -0.0429 -0.9911 0.1264
vn -0.0511 -0.9651 0.2568
vn -0.0676 -0.9652 0.2525
vn -0.0842 -0.9651 0.2480
vn -0.0752 -0.9226 0.3783
vn -0.0996 -0.9229 0.3719
vn -0.1240 -0.9226 0.3652
vn -0.0981 -0.8644 0.4932
vn -0.1299 -0.8648 0.4849
vn -0.1616 -0.8644 0.4762
vn -0.1193 -0.7914 0.5995
vn -0.1580 -0.7920 0.5897
vn -0.1965 -0.7914 0.5789
vn -0.1384 -0.7050 0.6956
vn -0.1834 -0.7057 0.6843
vn -0.2280 -0.7050 0.6716
vn -0.1551 -0.6066 0.7797
vn -0.2056 -0.6074 0.7673
vn -0.2555 -0.6066 0.7528
vn -0.1692 -0.4980 0.8505
vn -0.2243 -0.4988 0.8372
vn -0.2787 -0.4980 0.8211
vn -0.1804 -0.3810 0.9068
vn -0.2392 -0.3817 0.8928
vn -0.2972 -0.3810 0.8755
vn -0.1885 -0.2576 0.9477
vn -0.2500 -0.2581 0.9332
vn -0.3106 -0.2576 0.9150
vn -0.1934 -0.1299 0.9725
vn -0.2566 -0.1302 0.9577
vn -0.3187 -0.1299 0.9389
vn -0.1951 -0.0000 0.9808
vn -0.2588 -0.0000 0.9659
vn -0.3214 -0.0000 0.9469
vn -0.1934 0.1299 0.9725
vn -0.2566 0.1302 0.9577
vn -0.3187 0.1299 0.9389
vn -0.1885 0.2576 0.9477
vn -0.2500 0.2581 0.9332
vn -0.3106 0.2576 0.9150
vn -0.1804 0.3810 0.9068
vn -0.2392 0.3817 0.8928
vn -0.2972 0.3810 0.8755
vn -0.1692 0.4980 0.8505
vn -0.2243 0.4988 0.8372
vn -0.2787 0.4980 0.8211
vn -0.1551 0.6066 0.7797
vn -0.2056 0.6074 0.7673
vn -0.2555 0.6066 0.7528
vn -0.1384 0.7050 0.6956
vn -0.1834 0.7057 0.6843
vn -0.2280 0.7050 0.6716
vn -0.1193 0.7914 0.5995
vn -0.1580 0.7920 0.5897
vn -0.1965 0.7914 0.5789
vn -0.0981 0.8644 0.4932
vn -0.1299 0.8648 0.4849
vn -0.1616 0.8644 0.4762
vn -0.0752 0.9226 0.3783
vn -0.0996 0.9229 0.3719
vn -0.1240 0.9226 0.3652
vn -0.0511 0.9651 0.2568
vn -0.0676 0.9652 0.2525
vn -0.0842 0.9651 0.2480
vn -0.0260 0.9911 0.1309
vn -0.0345 0.9911 0.1287
vn -0.0429 0.9911 0.1264
vn -0.0169 0.9979 0.0632
# 71 vertex normals

vt 0.2708 1.0000 0.0000
vt 0.2708 0.9583 0.0000
vt 0.2917 0.9583 0.0000
vt 0.2917 1.0000 0.0000
vt 0.3125 0.9583 0.0000
vt 0.2708 0.9167 0.0000
vt 0.2917 0.9167 0.0000
vt 0.3125 0.9167 0.0000
vt 0.2708 0.8750 0.0000
vt 0.2917 0.8750 0.0000
vt 0.3125 0.8750 0.0000
vt 0.2708 0.8333 0.0000
vt 0.2917 0.8333 0.0000
vt 0.3125 0.8333 0.0000
vt 0.2708 0.7917 0.0000
vt 0.2917 0.7917 0.0000
vt 0.3125 0.7917 0.0000
vt 0.2708 0.7500 0.0000
vt 0.2917 0.7500 0.0000
vt 0.3125 0.7500 0.0000
vt 0.2708 0.7083 0.0000
vt 0.2917 0.7083 0.0000
vt 0.3125 0.7083 0.0000
vt 0.2708 0.6667 0.0000
vt 0.2917 0.6667 0.0000
vt 0.3125 0.6667 0.0000
vt 0.2708 0.6250 0.0000
vt 0.2917 0.6250 0.0000
vt 0.3125 0.6250 0.0000
vt 0.2708 0.5833 0.0000
vt 0.2917 0.5833 0.0000
vt 0.3125 0.5833 0.0000
vt 0.2708 0.5417 0.0000
vt 0.2917 0.5417 0.0000
vt 0.3125 0.5417 0.0000
vt 0.2708 0.5000 0.0000
vt 0.2917 0.5000 0.0000
vt 0.3125 0.5000 0.0000
vt 0.2708 0.4583 0.0000
vt 0.2917 0.4583 0.0000
vt 0.3125 0.4583 0.0000
vt 0.2708 0.4167 0.0000
vt 0.2917 0.4167 0.0000
vt 0.3125 0.4167 0.0000
vt 0.2708 0.3750 0.0000
vt 0.2917 0.3750 0.0000
vt 0.3125 0.3750 0.0000
vt 0.2708 0.3333 0.0000
vt 0.2917 0.3333 0.0000
vt 0.3125 0.3333 0.0000
vt 0.2708 0.2917 0.0000
vt 0.2917 0.2917 0.0000
vt 0.3125 0.2917 0.0000
vt 0.2708 0.2500 0.0000
vt 0.2917 0.2500 0.0000
vt 0.3125 0.2500 0.0000
vt 0.2708 0.2083 0.0000
vt 0.2917 0.2083 0.0000
vt 0.3125 0.2083 0.0000
vt 0.2708 0.1667 0.0000
vt 0.2917 0.1667 0.0000
vt 0.3125 0.1667 0.0000
vt 0.2708 0.1250 0.0000
vt 0.2917 0.1250 0.0000
vt 0.3125 0.1250 0.0000
vt 0.2708 0.0833 0.0000
vt 0.2917 0.0833 0.0000
vt 0.3125 0.0833 0.0000
vt 0.2708 0.0417 0.0000
vt 0.2917 0.0417 0.0000
vt 0.3125 0.0417 0.0000
vt 0.2708 0.0000 0.0000
vt 0.2917 0.0000 0.0000
# 73 texture coords

g GMTP05
usemtl 01___Default
s 1
f 1/1/1 2/2/2 3/3/3 
f 1/4/1 3/3/3 4/5/4 
f 2/2/2 5/6/5 6/7/6 3/3/3 
f 3/3/3 6/7/6 7/8/7 4/5/4 
f 5/6/5 8/9/8 9/10/9 6/7/6 
f 6/7/6 9/10/9 10/11/10 7/8/7 
f 8/9/8 11/12/11 12/13/12 9/10/9 
f 9/10/9 12/13/12 13/14/13 10/11/10 
f 11/12/11 14/15/14 15/16/15 12/13/12 
f 12/13/12 15/16/15 16/17/16 13/14/13 
f 14/15/14 17/18/17 18/19/18 15/16/15 
f 15/16/15 18/19/18 19/20/19 16/17/16 
f 17/18/17 20/21/20 21/22/21 18/19/18 
f 18/19/18 21/22/21 22/23/22 19/20/19 
f 20/21/20 23/24/23 24/25/24 21/22/21 
f 21/22/21 24/25/24 25/26/25 22/23/22 
f 23/24/23 26/27/26 27/28/27 24/25/24 
f 24/25/24 27/28/27 28/29/28 25/26/25 
f 26/27/26 29/30/29 30/31/30 27/28/27 
f 27/28/27 30/31/30 31/32/31 28/29/28 
f 29/30/29 32/33/32 33/34/33 30/31/30 
f 30/31/30 33/34/33 34/35/34 31/32/31 
f 32/33/32 35/36/35 36/37/36 33/34/33 
f 33/34/33 36/37/36 37/38/37 34/35/34 
f 35/36/35 38/39/38 39/40/39 36/37/36 
f 36/37/36 39/40/39 40/41/40 37/38/37 
f 38/39/38 41/42/41 42/43/42 39/40/39 
f 39/40/39 42/43/42 43/44/43 40/41/40 
f 41/42/41 44/45/44 45/46/45 42/43/42 
f 42/43/42 45/46/45 46/47/46 43/44/43 
f 44/45/44 47/48/47 48/49/48 45/46/45 
f 45/46/45 48/49/48 49/50/49 46/47/46 
f 47/48/47 50/51/50 51/52/51 48/49/48 
f 48/49/48 51/52/51 52/53/52 49/50/49 
f 50/51/50 53/54/53 54/55/54 51/52/51 
f 51/52/51 54/55/54 55/56/55 52/53/52 
f 53/54/53 56/57/56 57/58/57 54/55/54 
f 54/55/54 57/58/57 58/59/58 55/56/55 
f 56/57/56 59/60/59 60/61/60 57/58/57 
f 57/58/57 60/61/60 61/62/61 58/59/58 
f 59/60/59 62/63/62 63/64/63 60/61/60 
f 60/61/60 63/64/63 64/65/64 61/62/61 
f 62/63/62 65/66/65 66/67/66 63/64/63 
f 63/64/63 66/67/66 67/68/67 64/65/64 
f 65/66/65 68/69/68 69/70/69 66/67/66 
f 66/67/66 69/70/69 70/71/70 67/68/67 
f 71/72/71 69/70/69 68/69/68 
f 71/73/71 70/71/70 69/70/69 
# 44 polygons - 4 triangles

